<?xml version="1.0" encoding="UTF-8" standalone="no"?>
<svg
   xmlns:dc="http://purl.org/dc/elements/1.1/"
   xmlns:cc="http://creativecommons.org/ns#"
   xmlns:rdf="http://www.w3.org/1999/02/22-rdf-syntax-ns#"
   xmlns:svg="http://www.w3.org/2000/svg"
   xmlns="http://www.w3.org/2000/svg"
   id="svg2"
   xml:space="preserve"
   style="enable-background:new 0 0 303 165.6;"
   viewBox="0 0 303 165.6"
   y="0px"
   x="0px"
   version="1.1"><metadata
     id="metadata64"><rdf:RDF><cc:Work
         rdf:about=""><dc:format>image/svg+xml</dc:format><dc:type
           rdf:resource="http://purl.org/dc/dcmitype/StillImage" /><dc:title></dc:title></cc:Work></rdf:RDF></metadata><defs
     id="defs62" /><style
     id="style4"
     type="text/css">
	.st0{fill:none;}
</style><g
     id="Protection_Zone"><rect
       id="rect7"
       height="40.8"
       width="40.8"
       class="st0"
       y="124.8" /><rect
       id="rect9"
       height="40.8"
       width="40.8"
       class="st0"
       y="124.8"
       x="262.2" /><rect
       id="rect11"
       height="40.8"
       width="40.8"
       class="st0"
       y="0.1"
       x="262.2" /><rect
       id="rect13"
       height="40.8"
       width="40.8"
       class="st0"
       y="0.1" /></g><g
     id="cesnet"><g
       id="g18"><path
         style="fill:#5a5a5a;fill-opacity:1"
         d="m 262.1,58.8 0,-8 -9.5,0 0,-9.8 -9.7,0 0,9.8 -6.7,0 0,8 6.7,0 0,17.6 c 0,1.9 0.2,3.6 0.5,5.2 0.3,1.6 1,3.1 1.9,4.4 0.9,1.3 2.2,2.3 3.8,3 1.6,0.7 3.7,1.1 6.3,1.1 1.1,0 2.2,-0.1 3.4,-0.3 1.2,-0.2 2.2,-0.4 3,-0.8 l 0.1,0 -0.3,-7.8 -0.2,0.1 c -0.6,0.3 -1.2,0.5 -1.9,0.6 -0.7,0.1 -1.4,0.2 -2,0.2 -2,0 -3.4,-0.5 -3.9,-1.6 -0.6,-1.1 -0.9,-2.5 -0.9,-4.1 l 0,-17.6 9.4,0 z"
         id="path20" /><path
         style="fill:#5a5a5a;fill-opacity:1"
         d="m 84,66 c 0.2,-2.5 1.3,-4.7 3.2,-6.3 1.9,-1.7 4.3,-2.5 7.1,-2.5 1.5,0 2.8,0.2 3.9,0.7 1.1,0.5 2,1.2 2.8,2 0.7,0.8 1.3,1.8 1.6,2.9 0.3,1 0.5,2.1 0.5,3.3 L 84,66.1 Z M 107.7,54.9 C 106,53.2 104.1,51.8 101.8,51 99.5,50.1 97,49.7 94.4,49.7 c -2.9,0 -5.6,0.5 -8,1.5 -2.5,1 -4.6,2.4 -6.4,4.2 -1.8,1.8 -3.2,4 -4.3,6.5 -1,2.5 -1.6,5.4 -1.6,8.4 0,3.1 0.5,6 1.6,8.4 1,2.5 2.5,4.6 4.3,6.3 1.8,1.7 4,3 6.5,4 2.5,0.9 5.3,1.4 8.2,1.4 7.2,0 12.7,-2.6 16.5,-7.7 l 0.1,-0.1 -6.6,-5.3 -0.1,0.2 c -1,1.5 -2.4,2.7 -4,3.6 C 99,82 97,82.4 94.7,82.4 93.4,82.4 92,82.2 90.8,81.7 89.6,81.2 88.4,80.6 87.4,79.8 86.4,79 85.6,78 85,76.9 84.4,75.8 84.1,74.7 84,73.4 l 28.9,0 0,-0.2 c 0.1,-0.4 0.1,-0.9 0.1,-1.3 l 0,-1.3 c 0,-3.4 -0.5,-6.5 -1.4,-9.1 -0.9,-2.7 -2.2,-4.8 -3.9,-6.6"
         id="path22" /><path
         style="fill:#5a5a5a;fill-opacity:1"
         d="m 50.6,61.8 c 0.9,-1.1 1.9,-2.1 3.2,-2.8 1.3,-0.7 2.8,-1.1 4.5,-1.1 1.5,0 3,0.4 4.4,1.1 1.4,0.7 2.5,1.6 3.3,2.6 l 0.1,0.2 6.7,-5.8 0.1,-0.1 -0.1,-0.1 c -1.5,-1.9 -3.7,-3.4 -6.3,-4.4 -2.6,-1.1 -5.4,-1.6 -8.2,-1.6 -2.8,0 -5.5,0.5 -8,1.4 -2.5,1 -4.7,2.3 -6.5,4.1 -1.9,1.8 -3.4,3.9 -4.4,6.4 -1.1,2.5 -1.6,5.3 -1.6,8.4 0,3.2 0.6,6.1 1.6,8.6 1.1,2.5 2.6,4.6 4.5,6.4 1.9,1.8 4.1,3.1 6.6,4 2.5,0.9 5.2,1.4 8,1.4 2.9,0 5.6,-0.5 8,-1.4 2.5,-0.9 4.5,-2.3 6.1,-4 l 0.1,-0.1 -6.1,-6.2 -0.1,-0.1 -0.1,0.2 c -0.9,1.1 -2.1,1.9 -3.5,2.5 -1.5,0.6 -2.9,0.9 -4.4,0.9 -1.8,0 -3.3,-0.4 -4.6,-1 C 52.6,80.6 51.5,79.7 50.6,78.5 49.7,77.4 49,76.1 48.6,74.6 48.3,72.9 48,71.5 48,70 c 0,-1.5 0.2,-2.9 0.6,-4.4 0.5,-1.4 1.1,-2.7 2,-3.8"
         id="path24" /><path
         style="fill:#5a5a5a;fill-opacity:1"
         d="m 186,54.5 c -1.1,-1.4 -2.6,-2.6 -4.4,-3.5 -1.8,-0.9 -4,-1.3 -6.5,-1.3 -2.9,0 -5.4,0.7 -7.5,2.2 -2,1.4 -3.4,3 -4.3,4.7 l 0,-5.8 -9.4,0 0,38.4 9.9,0 0,-21.1 c 0,-1.2 0.2,-2.5 0.5,-3.7 0.4,-1.2 0.9,-2.3 1.6,-3.2 0.7,-0.9 1.6,-1.7 2.7,-2.3 1.1,-0.6 2.4,-0.9 3.9,-0.9 1.5,0 2.7,0.3 3.6,0.9 0.9,0.6 1.6,1.4 2.1,2.4 0.5,1 0.9,2 1,3.2 0.2,1.2 0.2,2.4 0.2,3.5 l 0,21.3 9.9,0 0,-24 c 0,-2 -0.3,-3.9 -0.8,-5.8 -0.5,-1.9 -1.4,-3.5 -2.5,-5"
         id="path26" /><path
         style="fill:#5a5a5a;fill-opacity:1"
         d="m 129.7,58.1 c 1.2,-0.6 2.6,-0.9 4.1,-0.9 1.7,0 3.3,0.4 4.8,1.2 1.5,0.8 2.6,1.8 3.4,2.8 l 0.1,0.2 6.5,-5.7 -0.1,-0.1 c -1.5,-2 -3.7,-3.5 -6.3,-4.4 -2.6,-1 -5.4,-1.4 -8.1,-1.4 -1.9,0 -3.8,0.2 -5.6,0.7 -1.8,0.5 -3.5,1.2 -4.9,2.2 -1.4,1 -2.6,2.3 -3.5,3.8 -0.9,1.6 -1.3,3.4 -1.3,5.6 0,1.8 0.3,3.4 1,4.6 0.6,1.2 1.5,2.3 2.6,3.1 1.1,0.8 2.3,1.5 3.7,2 1.3,0.5 2.8,0.9 4.2,1.2 2.9,0.7 5.1,1.4 6.5,2.1 1.4,0.7 2.1,1.7 2.1,3.2 0,0.8 -0.2,1.5 -0.5,2 -0.4,0.6 -0.8,1 -1.4,1.3 -0.6,0.3 -1.2,0.6 -1.9,0.7 -0.7,0.2 -1.4,0.2 -2.1,0.2 -2,0 -3.9,-0.4 -5.6,-1.3 -1.7,-0.9 -3,-2 -4.1,-3.4 l -0.1,-0.2 -6.5,6.1 0.1,0.1 c 1.9,2 4.2,3.6 7,4.7 2.8,1.1 5.7,1.6 8.7,1.6 2.1,0 4.1,-0.2 6,-0.7 1.9,-0.5 3.7,-1.2 5.1,-2.2 1.5,-1 2.7,-2.4 3.5,-4 0.9,-1.6 1.3,-3.6 1.3,-6 0,-1.9 -0.4,-3.5 -1.1,-4.8 -0.7,-1.3 -1.7,-2.4 -2.9,-3.3 -1.2,-0.9 -2.5,-1.6 -4,-2.1 -1.5,-0.5 -2.9,-1 -4.3,-1.3 -2.7,-0.6 -4.7,-1.3 -6.1,-1.9 -1.3,-0.6 -2,-1.6 -2,-3 -0.2,-1.1 0.4,-2.1 1.7,-2.7"
         id="path28" /><path
         style="fill:#5a5a5a;fill-opacity:1"
         d="m 204.6,66 c 0.2,-2.5 1.3,-4.7 3.2,-6.3 1.9,-1.7 4.3,-2.5 7.1,-2.5 1.5,0 2.8,0.2 3.9,0.7 1.1,0.5 2,1.2 2.8,2 0.7,0.8 1.3,1.8 1.6,2.9 0.3,1 0.5,2.1 0.5,3.3 l -19.1,0 z m 23.7,-11.1 c -1.7,-1.7 -3.6,-3.1 -5.9,-3.9 -2.3,-0.9 -4.8,-1.3 -7.4,-1.3 -2.9,0 -5.6,0.5 -8,1.5 -2.5,1 -4.6,2.4 -6.4,4.2 -1.8,1.8 -3.2,4 -4.3,6.5 -1,2.5 -1.6,5.4 -1.6,8.4 0,3.1 0.5,6 1.6,8.4 1,2.5 2.5,4.6 4.3,6.3 1.8,1.7 4,3 6.5,4 2.5,0.9 5.3,1.4 8.2,1.4 7.2,0 12.7,-2.6 16.5,-7.7 l 0.1,-0.1 -6.6,-5.3 -0.1,0.2 c -1,1.5 -2.4,2.7 -4,3.6 -1.6,0.9 -3.6,1.3 -5.9,1.3 -1.3,0 -2.7,-0.2 -3.9,-0.7 -1.2,-0.5 -2.4,-1.1 -3.4,-1.9 -1,-0.8 -1.8,-1.8 -2.4,-2.9 -0.6,-1.1 -0.9,-2.2 -1,-3.5 l 28.9,0 0,-0.2 c 0.1,-0.4 0.1,-0.9 0.1,-1.3 l 0,-1.3 c 0,-3.4 -0.5,-6.5 -1.4,-9.1 -0.9,-2.7 -2.2,-4.8 -3.9,-6.6"
         id="path30" /></g><g
       id="g32"><polygon
         style="fill:#0068a2;fill-opacity:1"
         points="136.1,105.1 146,105.1 146,115 136.1,115 "
         id="polygon34" /><polygon
         style="fill:#0068a2;fill-opacity:1"
         points="120.2,105.1 130.1,105.1 130.1,115 120.2,115 "
         id="polygon36" /><polygon
         style="fill:#0068a2;fill-opacity:1"
         points="114.2,124.9 114.2,115 104.3,115 104.3,124.9 "
         id="polygon38" /><polygon
         style="fill:#0068a2;fill-opacity:1"
         points="98.3,124.9 98.3,115 88.5,115 88.5,124.9 "
         id="polygon40" /><polygon
         style="fill:#0068a2;fill-opacity:1"
         points="82.5,124.9 82.5,115 72.6,115 72.6,124.9 "
         id="polygon42" /><polygon
         style="fill:#0068a2;fill-opacity:1"
         points="40.8,105.1 50.7,105.1 50.7,115 40.8,115 "
         id="polygon44" /><polygon
         style="fill:#0068a2;fill-opacity:1"
         points="56.7,105.1 66.6,105.1 66.6,115 56.7,115 "
         id="polygon46" /></g><g
       id="g48" /><g
       id="g50" /><g
       id="g52" /><g
       id="g54" /><g
       id="g56" /><g
       id="g58" /></g></svg>