<?xml version="1.0" encoding="UTF-8" standalone="no"?>
<!-- Generator: Adobe Illustrator 21.1.0, SVG Export Plug-In . SVG Version: 6.00 Build 0)  -->

<svg
   xmlns:dc="http://purl.org/dc/elements/1.1/"
   xmlns:cc="http://creativecommons.org/ns#"
   xmlns:rdf="http://www.w3.org/1999/02/22-rdf-syntax-ns#"
   xmlns:svg="http://www.w3.org/2000/svg"
   xmlns="http://www.w3.org/2000/svg"
   xmlns:sodipodi="http://sodipodi.sourceforge.net/DTD/sodipodi-0.dtd"
   xmlns:inkscape="http://www.inkscape.org/namespaces/inkscape"
   version="1.1"
   x="0px"
   y="0px"
   viewBox="0 0 376.50008 200.6"
   xml:space="preserve"
   id="svg4345"
   inkscape:version="0.92.2 5c3e80d, 2017-08-06"
   width="376.50009"
   height="200.60001"><defs
     id="defs40" /><metadata
     id="metadata4395"><rdf:RDF><cc:Work
         rdf:about=""><dc:format>image/svg+xml</dc:format><dc:type
           rdf:resource="http://purl.org/dc/dcmitype/StillImage" /><dc:title /></cc:Work></rdf:RDF></metadata><script
     type="text/ecmascript"
     id="script3"><![CDATA[

      // set element onclick event handler
      window.onload=function () {

         var vsechno = document.getElementById("vsechno");
         var tlustenet = document.getElementById("tlustenet");
         var tenkenet = document.getElementById("tenkenet");
         var nacesneti = document.getElementById("nacesneti");

         // onclick event handler, change circle radius
         vsechno.onclick = function() {
            if (tlustenet.style.display == "") {
                tlustenet.style.display = "none";
                tenkenet.style.display = "";
            } else if (nacesneti.style.display == "none") {
                nacesneti.style.display = "";
            } else if (nacesneti.style.display == "") {
                nacesneti.style.display = "none";
                tenkenet.style.display = "none";
                tlustenet.style.display = "";
            }
         }
      }
    ]]></script><sodipodi:namedview
     pagecolor="#ffffff"
     bordercolor="#666666"
     borderopacity="1"
     objecttolerance="10"
     gridtolerance="10"
     guidetolerance="10"
     inkscape:pageopacity="0"
     inkscape:pageshadow="2"
     inkscape:window-width="1920"
     inkscape:window-height="1135"
     id="namedview4391"
     showgrid="false"
     inkscape:zoom="3.1030513"
     inkscape:cx="148.3583"
     inkscape:cy="43.815487"
     inkscape:window-x="0"
     inkscape:window-y="0"
     inkscape:window-maximized="1"
     inkscape:current-layer="cesnet"
     showguides="true"
     inkscape:guide-bbox="true"
     fit-margin-top="0"
     fit-margin-left="0"
     fit-margin-right="0"
     fit-margin-bottom="0"><sodipodi:guide
       position="0.63058393,1.1803894"
       orientation="1,0"
       id="guide5000"
       inkscape:label=""
       inkscape:color="rgb(0,0,255)"
       inkscape:locked="false" /><sodipodi:guide
       position="-6.064491e-06,0.77366006"
       orientation="0,1"
       id="guide5010"
       inkscape:label=""
       inkscape:color="rgb(0,0,255)"
       inkscape:locked="false" /></sodipodi:namedview><style
     type="text/css"
     id="style4347">
	.st0{fill:none;}
	.st1{fill:#00A1DE;}
	.st2{fill:#5A5A5A;}
</style><g
     id="vsechno"><g
       id="Protection_Zone"><rect
         y="159.8"
         class="st0"
         width="40.799999"
         height="40.799999"
         id="rect4354"
         x="0"
         style="fill:none" /><rect
         x="337.20001"
         y="159.7"
         class="st0"
         width="40.799999"
         height="40.799999"
         id="rect4356"
         style="fill:none" /><rect
         x="337.20001"
         class="st0"
         width="40.799999"
         height="40.799999"
         id="rect4358"
         y="0"
         style="fill:none" /><rect
         y="0"
         class="st0"
         width="40.799999"
         height="40.799999"
         id="rect4360"
         x="0"
         style="fill:none" /></g><g
       id="cesnet"><g
         aria-label="ces"
         style="font-style:normal;font-variant:normal;font-weight:normal;font-stretch:normal;line-height:0%;font-family:'DejaVu Sans Mono';-inkscape-font-specification:'DejaVu Sans Mono';letter-spacing:0px;word-spacing:0px;fill:#000000;fill-opacity:1;stroke:none;stroke-width:1px;stroke-linecap:butt;stroke-linejoin:miter;stroke-opacity:1"
         id="CES"><path
           d="m 58.651606,85.231042 q 8.72,0 13.92,5.84 l -6.64,6.64 q -3.6,-3.84 -7.28,-3.84 -5.12,0 -8.24,3.44 -3.04,3.359998 -3.04,8.079998 0,5.12 3.2,8.32 3.28,3.2 8.08,3.2 4.64,0 7.44,-3.6 l 6.4,6.88 q -2.24,2.24 -6.16,3.84 -3.84,1.52 -7.68,1.52 -8.8,0 -14.88,-5.6 -6,-5.6 -6,-14.56 0,-8.719998 5.92,-14.399998 5.92,-5.76 14.96,-5.76 z"
           style="font-style:normal;font-variant:normal;font-weight:bold;font-stretch:normal;font-size:80px;line-height:1.25;font-family:'Avenir LT Pro';-inkscape-font-specification:'Avenir LT Pro Bold';letter-spacing:-1.45000005px;fill:#5a5a5a;fill-opacity:1"
           id="path42" /><path
           d="m 95.795355,85.231042 q 8.640005,0 13.280005,5.76 4.72,5.76 4.72,15.039998 v 2.72 H 84.515355 q 0.48,4.16 3.28,6.64 2.88,2.48 7.04,2.48 6.080005,0 10.320005,-5.2 l 6.88,5.2 q -6.24,7.68 -16.240005,7.68 -8.8,0 -14.88,-5.6 -6,-5.6 -6,-14.56 0,-8.959998 6,-14.559998 6.08,-5.6 14.88,-5.6 z m 8.400005,16.319998 q -0.08,-4.559998 -2.8,-6.799998 -2.720005,-2.32 -7.040005,-2.32 -4.32,0 -6.8,2.56 -2.48,2.48 -3.04,6.559998 z"
           style="font-style:normal;font-variant:normal;font-weight:bold;font-stretch:normal;font-size:80px;line-height:1.25;font-family:'Avenir LT Pro';-inkscape-font-specification:'Avenir LT Pro Bold';letter-spacing:-1.45000005px;fill:#5a5a5a;fill-opacity:1"
           id="path44" /><path
           d="m 134.44285,85.231042 q 9.44,0 13.76,5.84 l -6.4,5.76 q -2.88,-3.92 -7.52,-3.92 -2.32,0 -4,1.12 -1.6,1.12 -1.6,2.96 0,2.8 5.68,3.999998 l 3.44,0.8 q 6.32,1.36 8.96,4.24 2.64,2.8 2.64,7.2 0,5.6 -4.48,8.96 -4.48,3.36 -12.16,3.36 -9.68,0 -14.88,-5.92 l 6.4,-6 q 2.48,2.72 4.56,3.76 2.08,0.96 4.56,0.96 2.64,0 4.48,-1.2 1.92,-1.2 1.92,-3.2 0,-3.28 -5.92,-4.64 -7.68,-1.76 -9.6,-2.72 -1.92,-1.04 -3.12,-2.4 -1.12,-1.44 -1.6,-3.04 -0.48,-1.679998 -0.48,-3.519998 0,-5.68 4.32,-9.04 4.4,-3.36 11.04,-3.36 z"
           style="font-style:normal;font-variant:normal;font-weight:bold;font-stretch:normal;font-size:80px;line-height:1.25;font-family:'Avenir LT Pro';-inkscape-font-specification:'Avenir LT Pro Bold';letter-spacing:-1.45000005px;fill:#5a5a5a;fill-opacity:1"
           id="path46" /></g><g
         id="nacesneti"
         transform="translate(65.774484,-1.169)"
         style="display:none"><path
           style="fill:#0068a2;fill-opacity:1"
           id="path4377"
           d="M 271.4,50.1 V 46 h -4.9 v -5.1 h -5 V 46 H 258 v 4.1 h 3.4 v 9.1 c 0,1 0.1,1.9 0.3,2.7 0.2,0.8 0.5,1.6 1,2.3 0.5,0.6 1.2,1.2 2,1.5 0.8,0.4 1.9,0.6 3.2,0.6 0.5,0 1.1,0 1.7,-0.1 0.6,-0.1 1.1,-0.2 1.6,-0.4 h 0.1 l -0.2,-4.1 -0.1,0.1 c -0.3,0.1 -0.6,0.2 -1,0.3 -0.4,0.1 -0.7,0.1 -1.1,0.1 -1.1,0 -1.7,-0.3 -2,-0.8 -0.3,-0.6 -0.5,-1.3 -0.5,-2.1 v -9.1 h 5 z"
           class="st1"
           inkscape:connector-curvature="0" /><path
           style="fill:#0068a2;fill-opacity:1"
           id="path4379"
           d="m 179.3,53.9 c 0.1,-1.3 0.7,-2.4 1.7,-3.3 1,-0.9 2.3,-1.3 3.7,-1.3 0.8,0 1.5,0.1 2,0.4 0.6,0.3 1.1,0.6 1.4,1 0.4,0.4 0.6,0.9 0.8,1.5 0.2,0.5 0.3,1.1 0.3,1.7 z m 12.3,-5.8 c -0.9,-0.9 -1.9,-1.6 -3.1,-2 -1.2,-0.5 -2.5,-0.7 -3.8,-0.7 -1.5,0 -2.9,0.3 -4.2,0.8 -1.3,0.5 -2.4,1.2 -3.3,2.2 -0.9,0.9 -1.7,2 -2.2,3.4 -0.5,1.3 -0.8,2.8 -0.8,4.4 0,1.6 0.3,3.1 0.8,4.4 0.5,1.3 1.3,2.4 2.2,3.3 0.9,0.9 2.1,1.6 3.4,2 1.3,0.5 2.7,0.7 4.3,0.7 3.7,0 6.6,-1.3 8.5,-4 l 0.1,-0.1 -3.4,-2.7 -0.1,0.1 c -0.5,0.8 -1.2,1.4 -2.1,1.8 -0.8,0.4 -1.9,0.7 -3.1,0.7 -0.7,0 -1.4,-0.1 -2,-0.4 -0.6,-0.2 -1.2,-0.6 -1.7,-1 -0.5,-0.4 -0.9,-0.9 -1.2,-1.5 -0.3,-0.5 -0.5,-1.2 -0.5,-1.8 h 15 v -0.1 c 0,-0.2 0,-0.4 0,-0.7 v -0.7 c 0,-1.8 -0.2,-3.4 -0.7,-4.7 -0.6,-1.3 -1.3,-2.5 -2.1,-3.4"
           class="st1"
           inkscape:connector-curvature="0" /><path
           style="fill:#0068a2;fill-opacity:1"
           id="path4381"
           d="m 162,51.7 c 0.4,-0.6 1,-1.1 1.7,-1.4 0.7,-0.4 1.5,-0.5 2.3,-0.5 0.8,0 1.5,0.2 2.3,0.5 0.7,0.4 1.3,0.8 1.7,1.3 l 0.1,0.1 3.4,-3 0.1,-0.1 -0.1,-0.1 c -0.8,-1 -1.9,-1.7 -3.3,-2.3 -1.4,-0.5 -2.8,-0.8 -4.2,-0.8 -1.5,0 -2.8,0.2 -4.1,0.7 -1.3,0.5 -2.4,1.2 -3.4,2.1 -1,0.9 -1.7,2 -2.3,3.3 -0.6,1.3 -0.8,2.8 -0.8,4.3 0,1.6 0.3,3.1 0.8,4.4 0.6,1.3 1.3,2.4 2.3,3.3 1,0.9 2.1,1.6 3.4,2.1 1.3,0.5 2.7,0.7 4.2,0.7 1.5,0 2.9,-0.2 4.2,-0.7 1.3,-0.5 2.3,-1.2 3.2,-2.1 l 0.1,-0.1 -3.1,-3.2 -0.1,-0.1 -0.1,0.1 c -0.5,0.6 -1.1,1 -1.8,1.3 -0.7,0.3 -1.5,0.4 -2.3,0.4 -0.9,0 -1.7,-0.2 -2.4,-0.5 -0.7,-0.4 -1.3,-0.8 -1.7,-1.4 -0.5,-0.6 -0.8,-1.3 -1,-2 -0.2,-0.7 -0.3,-1.5 -0.3,-2.3 0,-0.8 0.1,-1.5 0.3,-2.3 0.1,-0.4 0.4,-1.1 0.9,-1.7"
           class="st1"
           inkscape:connector-curvature="0" /><path
           style="fill:#0068a2;fill-opacity:1"
           id="path4383"
           d="m 232,47.9 c -0.6,-0.7 -1.4,-1.4 -2.3,-1.8 -0.9,-0.5 -2.1,-0.7 -3.3,-0.7 -1.5,0 -2.8,0.4 -3.9,1.1 -1,0.7 -1.8,1.5 -2.2,2.4 v -3 h -4.9 v 19.9 h 5.1 V 55 c 0,-0.6 0.1,-1.3 0.3,-1.9 0.2,-0.6 0.5,-1.2 0.8,-1.7 0.4,-0.5 0.8,-0.9 1.4,-1.2 0.6,-0.3 1.2,-0.5 2,-0.5 0.8,0 1.4,0.2 1.9,0.5 0.5,0.3 0.8,0.7 1.1,1.2 0.3,0.5 0.4,1.1 0.5,1.7 0.1,0.6 0.1,1.2 0.1,1.8 v 11 h 5.1 V 53.5 c 0,-1 -0.1,-2 -0.4,-3 -0.2,-1 -0.7,-1.8 -1.3,-2.6"
           class="st1"
           inkscape:connector-curvature="0" /><path
           style="fill:#0068a2;fill-opacity:1"
           id="path4385"
           d="m 202.9,49.8 c 0.6,-0.3 1.4,-0.5 2.1,-0.5 0.9,0 1.7,0.2 2.5,0.6 0.7,0.4 1.3,0.9 1.8,1.5 l 0.1,0.1 3.3,-3 -0.1,-0.1 c -0.8,-1 -1.9,-1.8 -3.3,-2.3 -1.4,-0.5 -2.8,-0.7 -4.2,-0.7 -1,0 -2,0.1 -2.9,0.4 -0.9,0.2 -1.8,0.6 -2.5,1.1 -0.7,0.5 -1.4,1.2 -1.8,2 -0.5,0.8 -0.7,1.8 -0.7,2.9 0,0.9 0.2,1.7 0.5,2.4 0.3,0.6 0.8,1.2 1.3,1.6 0.6,0.4 1.2,0.8 1.9,1 0.7,0.3 1.4,0.5 2.2,0.6 1.5,0.4 2.6,0.7 3.4,1.1 0.7,0.3 1.1,0.9 1.1,1.7 0,0.4 -0.1,0.8 -0.3,1.1 -0.2,0.3 -0.4,0.5 -0.7,0.7 -0.3,0.2 -0.6,0.3 -1,0.4 -0.4,0.1 -0.7,0.1 -1.1,0.1 -1,0 -2,-0.2 -2.9,-0.7 -0.9,-0.5 -1.6,-1 -2.1,-1.7 l -0.1,-0.1 -3.4,3.2 0.1,0.1 c 1,1 2.2,1.9 3.6,2.4 1.5,0.6 3,0.8 4.5,0.8 1.1,0 2.1,-0.1 3.1,-0.3 1,-0.2 1.9,-0.6 2.7,-1.1 0.8,-0.5 1.4,-1.2 1.8,-2.1 0.5,-0.8 0.7,-1.9 0.7,-3.1 0,-1 -0.2,-1.8 -0.6,-2.5 -0.4,-0.7 -0.9,-1.3 -1.5,-1.7 -0.6,-0.5 -1.3,-0.8 -2.1,-1.1 -0.8,-0.3 -1.5,-0.5 -2.2,-0.7 -1.4,-0.3 -2.4,-0.7 -3.2,-1 -0.7,-0.3 -1,-0.8 -1,-1.5 0.1,-0.8 0.4,-1.3 1,-1.6"
           class="st1"
           inkscape:connector-curvature="0" /><path
           style="fill:#0068a2;fill-opacity:1"
           id="path4387"
           d="m 241.7,53.9 c 0.1,-1.3 0.7,-2.4 1.7,-3.3 1,-0.9 2.3,-1.3 3.7,-1.3 0.8,0 1.5,0.1 2,0.4 0.6,0.3 1.1,0.6 1.4,1 0.4,0.4 0.6,0.9 0.8,1.5 0.2,0.5 0.3,1.1 0.3,1.7 z m 12.2,-5.8 c -0.9,-0.9 -1.9,-1.6 -3.1,-2 -1.2,-0.5 -2.5,-0.7 -3.8,-0.7 -1.5,0 -2.9,0.3 -4.2,0.8 -1.3,0.5 -2.4,1.2 -3.3,2.2 -0.9,0.9 -1.7,2 -2.2,3.4 -0.5,1.3 -0.8,2.8 -0.8,4.4 0,1.6 0.3,3.1 0.8,4.4 0.5,1.3 1.3,2.4 2.2,3.3 0.9,0.9 2.1,1.6 3.4,2 1.3,0.5 2.7,0.7 4.3,0.7 3.7,0 6.6,-1.3 8.5,-4 l 0.1,-0.1 -3.4,-2.7 -0.1,0.1 c -0.5,0.8 -1.2,1.4 -2.1,1.8 -0.8,0.4 -1.9,0.7 -3.1,0.7 -0.7,0 -1.4,-0.1 -2,-0.4 -0.6,-0.2 -1.2,-0.6 -1.7,-1 -0.5,-0.4 -0.9,-0.9 -1.2,-1.5 -0.3,-0.5 -0.5,-1.2 -0.5,-1.8 h 15 v -0.1 c 0,-0.2 0,-0.4 0,-0.7 v -0.7 c 0,-1.8 -0.2,-3.4 -0.7,-4.7 -0.5,-1.3 -1.2,-2.5 -2.1,-3.4"
           class="st1"
           inkscape:connector-curvature="0" /></g><g
         transform="translate(0.040476,34.80117)"
         id="g49"
         style="fill:#0068a2;fill-opacity:1"><polygon
           class="st2"
           points="146,105.1 146,115 136.1,115 136.1,105.1 "
           id="polygon35"
           style="fill:#0068a2;fill-opacity:1" /><polygon
           class="st2"
           points="130.1,105.1 130.1,115 120.2,115 120.2,105.1 "
           id="polygon37"
           style="fill:#0068a2;fill-opacity:1" /><polygon
           class="st2"
           points="114.2,115 104.3,115 104.3,124.9 114.2,124.9 "
           id="polygon39"
           style="fill:#0068a2;fill-opacity:1" /><polygon
           class="st2"
           points="98.3,115 88.5,115 88.5,124.9 98.3,124.9 "
           id="polygon41"
           style="fill:#0068a2;fill-opacity:1" /><polygon
           class="st2"
           points="82.5,115 72.6,115 72.6,124.9 82.5,124.9 "
           id="polygon43"
           style="fill:#0068a2;fill-opacity:1" /><polygon
           class="st2"
           points="50.7,105.1 50.7,115 40.8,115 40.8,105.1 "
           id="polygon45"
           style="fill:#0068a2;fill-opacity:1" /><polygon
           class="st2"
           points="66.6,105.1 66.6,115 56.7,115 56.7,105.1 "
           id="polygon47"
           style="fill:#0068a2;fill-opacity:1" /></g><g
         aria-label="net"
         style="display:none;fill:#5a5a5a;fill-opacity:1"
         id="tenkenet"><path
           d="m 173.69811,86.191042 q 7.04,0 10.64,4.08 3.6,4.08 3.6,10.879998 v 23.44 h -6.24 v -22.72 q 0,-4.319998 -2,-7.039998 -2,-2.8 -6.56,-2.88 -5.76,0 -8.72,3.84 -2.88,3.76 -2.88,10.479998 v 18.32 h -6.24 V 95.471042 q 0,-0.4 -0.32,-8.32 h 5.92 q 0.16,5.6 0.16,6.16 h 0.16 q 1.52,-3.2 4.88,-5.12 3.44,-2 7.6,-2 z"
           style="font-style:normal;font-variant:normal;font-weight:normal;font-stretch:normal;font-family:'Avenir LT Pro';-inkscape-font-specification:'Avenir LT Pro';fill:#5a5a5a;fill-opacity:1"
           id="path49"
           inkscape:connector-curvature="0" /><path
           d="m 215.41936,86.191042 q 8.32,0 12.96,5.28 4.72,5.2 4.8,14.799998 v 1.52 h -30.24 q 0.48,5.2 3.92,8.56 3.44,3.36 8.4,3.44 7.6,0 11.84,-5.68 l 4.72,3.68 q -2.96,3.84 -6.96,5.84 -4,1.92 -9.6,1.92 -8.56,0 -13.76,-5.52 -5.2,-5.6 -5.28,-14.16 0,-8.479998 5.28,-13.999998 5.36,-5.52 13.92,-5.68 z m 11.04,16.319998 q -0.24,-4.879998 -3.2,-7.679998 -2.88,-2.88 -8.16,-2.88 -4.8,0 -8.08,2.72 -3.28,2.72 -4.08,7.839998 z"
           style="font-style:normal;font-variant:normal;font-weight:normal;font-stretch:normal;font-family:'Avenir LT Pro';-inkscape-font-specification:'Avenir LT Pro';fill:#5a5a5a;fill-opacity:1"
           id="path51"
           inkscape:connector-curvature="0" /><path
           d="m 250.90061,76.511042 v 10.64 h 11.04 v 5.28 h -11.04 v 19.999998 q 0,4.48 1.44,5.92 1.44,1.44 4.16,1.44 3.12,0 5.52,-1.28 l 0.24,5.68 q -3.2,1.36 -7.28,1.36 -5.76,0 -8.08,-2.8 -2.24,-2.88 -2.24,-9.36 V 92.431042 h -8.16 v -5.28 h 8.16 v -10.64 z"
           style="font-style:normal;font-variant:normal;font-weight:normal;font-stretch:normal;font-family:'Avenir LT Pro';-inkscape-font-specification:'Avenir LT Pro';fill:#5a5a5a;fill-opacity:1"
           id="path53"
           inkscape:connector-curvature="0" /></g><g
         aria-label="net"
         style="font-style:normal;font-variant:normal;font-weight:normal;font-stretch:normal;line-height:0%;font-family:'DejaVu Sans Mono';-inkscape-font-specification:'DejaVu Sans Mono';letter-spacing:0px;word-spacing:0px;fill:#000000;fill-opacity:1;stroke:none;stroke-width:1px;stroke-linecap:butt;stroke-linejoin:miter;stroke-opacity:1"
         id="tlustenet"><path
           d="m 174.76168,85.231042 q 6.56,0 10.24,3.92 3.76,3.92 3.76,10.879998 v 24.56 h -9.6 v -19.92 q 0,-10.799998 -7.04,-10.799998 -4.08,0 -6.48,2.64 -2.32,2.64 -2.32,6.959998 v 21.12 h -9.6 V 86.191042 h 9.12 v 6.16 h 0.16 q 3.28,-7.12 11.76,-7.12 z"
           style="font-style:normal;font-variant:normal;font-weight:bold;font-stretch:normal;font-size:80px;line-height:1.25;font-family:'Avenir LT Pro';-inkscape-font-specification:'Avenir LT Pro';letter-spacing:-1.45000005px;fill:#5a5a5a;fill-opacity:1"
           id="path56" /><path
           d="m 217.16918,85.231042 q 8.64,0 13.28,5.76 4.72,5.76 4.72,15.039998 v 2.72 h -29.28 q 0.48,4.16 3.28,6.64 2.88,2.48 7.04,2.48 6.08,0 10.32,-5.2 l 6.88,5.2 q -6.24,7.68 -16.24,7.68 -8.8,0 -14.88,-5.6 -6,-5.6 -6,-14.56 0,-8.959998 6,-14.559998 6.08,-5.6 14.88,-5.6 z m 8.4,16.319998 q -0.08,-4.559998 -2.8,-6.799998 -2.72,-2.32 -7.04,-2.32 -4.32,0 -6.8,2.56 -2.48,2.48 -3.04,6.559998 z"
           style="font-style:normal;font-variant:normal;font-weight:bold;font-stretch:normal;font-size:80px;line-height:1.25;font-family:'Avenir LT Pro';-inkscape-font-specification:'Avenir LT Pro';letter-spacing:-1.45000005px;fill:#5a5a5a;fill-opacity:1"
           id="path58" /><path
           d="m 255.73668,75.071042 v 11.12 h 10.56 v 8.16 h -10.56 v 17.039998 q 0,6 5.36,6 3.6,0 5.2,-1.2 v 8.08 q -2.72,1.28 -7.6,1.28 -6.64,0 -9.6,-2.88 -2.96,-2.96 -2.96,-10.32 V 94.351042 h -7.92 v -8.16 h 7.92 v -11.12 z"
           style="font-style:normal;font-variant:normal;font-weight:bold;font-stretch:normal;font-size:80px;line-height:1.25;font-family:'Avenir LT Pro';-inkscape-font-specification:'Avenir LT Pro';letter-spacing:-1.45000005px;fill:#5a5a5a;fill-opacity:1"
           id="path60" /></g></g></g></svg>
